<?xml version="1.0" encoding="utf-8"?>
<svg xmlns="http://www.w3.org/2000/svg" viewBox="504.5315 24.432 539.6086 452.3324" width="539.609px" height="452.332px">
  <g transform="matrix(1, 0, 0, 1, 7.105427357601002e-15, 1.4210854715202004e-14)">
    <path d="M 886.34 30.347 C 886.36 35.764 886.383 36.335 886.574 37.266 C 887.139 40.07 887.371 43.476 887.204 46.513 C 887.057 49.126 887.06 49.909 887.249 53.009 C 887.417 55.876 887.387 62.171 887.198 64.658 C 887.098 65.895 887.11 66.234 887.27 67.197 C 887.484 68.488 887.436 69.757 887.128 71.058 C 886.86 72.191 886.538 75.682 886.364 79.427 C 886.102 85.024 886.014 86.59 885.814 89.097 C 885.175 97.191 884.031 104.46 882.25 111.739 C 881.817 113.516 881.612 114.585 881.532 115.494 C 881.472 116.193 881.329 117.24 881.216 117.822 C 880.97 119.049 880.257 121.313 879.79 122.361 C 879.583 122.837 879.49 123.176 879.533 123.334 C 879.575 123.493 879.534 123.694 879.43 123.853 C 879.337 124.001 879.151 124.657 879.007 125.313 C 878.874 125.979 878.636 126.773 878.491 127.09 C 878.335 127.439 878.232 127.852 878.233 128.159 C 878.238 129.323 877.763 130.962 877.119 132.031 C 876.911 132.38 876.508 133.681 875.766 136.443 C 874.415 141.479 874.57 141.013 874.163 141.151 L 873.808 141.267 L 873.686 142.294 C 873.615 142.854 873.492 143.426 873.419 143.553 C 873.336 143.68 873.274 143.912 873.275 144.06 C 873.275 144.198 873.016 144.79 872.705 145.372 C 872.393 145.954 872.134 146.557 872.135 146.727 C 872.135 146.917 871.627 147.912 870.692 149.53 C 869.84 151.001 868.584 153.434 867.64 155.402 C 866.759 157.254 865.514 159.719 864.88 160.883 C 864.236 162.046 863.624 163.284 863.511 163.633 C 863.407 163.983 863.034 164.723 862.68 165.273 C 861.599 166.956 861.279 167.95 861.523 168.849 L 861.608 169.199 L 862.359 168.818 C 863.381 168.299 864.319 167.379 865.786 165.464 C 866.961 163.93 867.492 163.327 868.325 162.565 C 868.523 162.385 869.137 161.528 869.677 160.66 C 874.187 153.434 874.738 152.609 875.478 151.89 C 876.269 151.138 876.852 150.292 877.349 149.181 C 877.515 148.811 878.19 147.647 878.845 146.6 C 889.985 128.804 897.792 108.575 902.525 85.236 C 903.962 78.115 905.524 67.884 905.699 64.435 C 905.797 62.563 905.899 62.055 906.274 61.6 C 906.93 60.806 907.829 61.05 911.003 62.88 C 915.434 65.43 919.949 68.001 928.57 72.857 C 946.084 82.718 954.035 87.383 962.511 92.726 C 966.021 94.938 965.602 94.747 966.249 94.483 C 967.261 94.081 968.878 93.192 970.088 92.367 C 971.986 91.076 972.538 90.6 977.841 85.775 C 979.633 84.146 981.613 82.548 983.031 81.586 C 983.709 81.131 984.313 80.739 984.386 80.707 C 984.46 80.686 984.491 80.633 984.459 80.591 C 984.417 80.538 890.319 26.697 886.978 24.803 L 886.318 24.432 L 886.34 30.347 Z" fill="#FFFFFF" stroke="none"/>
    <path d="M 1033.29 117.564 C 1027.7 119.468 1022.97 121.478 1017.07 124.472 C 1001.26 132.46 984.634 144.278 966.349 160.518 C 960.535 165.692 951.92 173.807 951.921 174.114 C 951.922 174.22 949.902 176.41 947.424 178.991 C 944.935 181.615 942.78 183.953 942.572 184.281 C 941.813 185.498 940.958 186.08 939.913 186.08 C 938.544 186.08 936.449 185.001 934.394 183.234 C 933.754 182.673 931.784 181.171 927.423 177.859 C 920.693 172.77 916.512 169.945 913.119 168.2 C 911.684 167.47 910.093 166.782 910.009 166.856 C 909.989 166.888 916.612 177.203 924.739 189.793 C 940.435 214.127 940.119 213.662 941.334 214.265 C 941.994 214.603 942.715 214.625 943.279 214.328 C 943.832 214.053 944.539 213.217 945.006 212.297 C 945.328 211.673 948.822 206.711 953.752 199.887 C 954.178 199.305 955.696 197.189 957.131 195.179 C 963.07 186.894 962.248 187.942 966.89 182.535 C 993.401 151.674 1014.41 131.466 1033.92 118.061 C 1034.95 117.363 1035.74 116.781 1035.69 116.781 C 1035.64 116.781 1034.56 117.13 1033.29 117.564 Z" fill="#FFFFFF" stroke="none"/>
    <path d="M 793.407 32.082 C 793.407 32.113 794.512 34.102 795.869 36.494 C 800.551 44.809 802.688 48.756 805.194 53.813 C 808.943 61.335 811.422 67.302 813.473 73.756 C 813.844 74.92 814.552 77.036 815.038 78.464 C 818.039 87.267 819.893 96.831 820.707 107.718 C 820.894 110.247 821.098 114.521 821.103 116.045 L 821.107 117.071 L 820.773 117.124 C 820.585 117.155 820.052 117.229 819.603 117.293 C 816.886 117.695 814.195 119.335 812.782 121.451 C 810.474 124.868 811.201 129.291 814.535 131.989 C 815.531 132.803 816.421 133.301 817.677 133.755 C 818.996 134.232 820.188 134.433 821.746 134.433 C 824.84 134.433 827.46 133.427 829.449 131.481 C 831.793 129.195 832.545 126.127 831.489 123.218 C 830.306 119.97 826.69 117.452 822.759 117.124 L 821.86 117.05 L 821.993 116.457 C 822.796 112.923 823.603 107.983 824.283 102.481 L 824.791 98.408 L 824.682 94.387 C 824.561 89.997 824.449 87.891 824.121 84.019 C 823.4 75.671 821.915 66.985 819.848 59.05 C 818.883 55.326 818.407 53.876 816.888 50.015 C 816.476 48.978 816.149 48.079 816.149 48.015 C 816.148 47.941 816.221 47.888 816.294 47.888 C 816.43 47.888 816.42 47.793 816.261 47.327 L 816.06 46.756 L 820.931 46.693 C 828.143 46.587 836.192 46.608 838.618 46.735 C 839.799 46.798 841.587 46.851 842.59 46.841 C 845.235 46.82 848.215 47.01 849.386 47.253 L 850.38 47.465 L 850.713 47.105 C 851.109 46.671 851.315 45.804 851.207 45 C 851.1 44.175 849.678 38.44 849.234 37.023 C 849.138 36.726 848.855 36.515 847.326 35.541 C 846.33 34.928 845.335 34.367 845.105 34.314 C 842.762 33.785 827.423 32.738 815.986 32.336 C 808.125 32.06 793.406 31.891 793.407 32.082 Z" fill="#FFFFFF" stroke="none"/>
    <path d="M 506.928 183.594 C 507.985 184.506 509.816 186.126 511.006 187.192 L 513.16 189.133 L 513.076 188.632 C 512.96 187.911 513.035 186.098 513.234 184.82 C 513.866 180.673 515.937 175.351 518.664 170.857 C 519.895 168.826 520.854 167.818 522.074 167.269 C 522.802 166.93 523.321 166.882 524.054 167.071 L 524.633 167.211 L 551.721 190.799 C 568.272 205.206 579.055 214.654 579.446 215.074 C 580.58 216.286 581.183 217.689 581.378 219.513 L 581.489 220.548 L 587 214.299 C 590.033 210.855 594.063 206.296 595.959 204.178 L 599.385 200.315 L 598.462 200.36 C 596.876 200.428 595.523 200.13 594.243 199.442 C 593.573 199.084 591.752 197.501 566.379 175.295 C 551.442 162.224 539.124 151.398 539.006 151.228 C 537.944 149.788 538.267 147.996 539.876 146.402 C 542.581 143.723 547.822 140.334 551.903 138.622 C 554.53 137.533 556.865 136.91 558.44 136.887 C 558.88 136.881 558.997 136.843 558.928 136.729 C 558.885 136.649 557.094 135.065 554.939 133.207 L 551.028 129.835 L 548.087 133.124 C 546.466 134.942 538.099 144.414 529.494 154.192 C 520.889 163.97 511.857 174.207 509.434 176.95 L 505.005 181.936 L 506.928 183.594 Z" style="transform-origin: 3028.41px 16268.9px;" fill="#FFFFFF" stroke="none"/>
    <path d="M 600.883 81.467 C 600.711 81.62 600.01 82.255 599.326 82.877 C 595.967 85.892 592.756 89.493 590.484 92.798 C 584.948 100.86 583.76 108.202 586.909 114.844 C 587.62 116.344 589.659 119.125 590.679 119.991 C 593.878 122.719 597.91 123.993 602.535 123.752 C 603.187 123.718 604.964 123.499 606.472 123.269 C 611.495 122.511 634.658 119.267 636.193 119.107 C 643.867 118.29 649.041 119.155 652.435 121.832 C 652.969 122.253 653.288 122.596 654.052 123.624 C 654.897 124.762 655.05 125.004 655.402 125.915 C 656.385 128.45 656.662 131.242 656.225 134.245 C 655.959 136.097 655.496 137.542 654.609 139.26 C 653.245 141.909 651.42 144.029 648.862 145.914 C 645.892 148.103 642.109 148.761 637.034 147.941 C 633.701 147.414 630.851 146.453 627.659 144.783 C 625.089 143.444 622.948 141.947 621.112 140.21 C 619.985 139.149 618.111 136.783 617.458 135.623 C 616.553 134.002 615.955 132.196 615.778 130.644 L 615.699 129.94 L 615.461 130.077 C 615.044 130.304 613.125 132.034 612.332 132.894 C 608.043 137.567 606.691 143.531 608.763 148.654 C 609.169 149.656 610.38 151.444 611.11 152.129 C 612.596 153.518 614.978 155.022 616.841 155.726 C 620.038 156.945 623.84 157.455 627.614 157.17 C 635.261 156.581 644.158 152.693 652.273 146.37 C 657.032 142.68 660.293 139.357 663.077 135.373 C 668.473 127.65 670.07 118.982 667.518 111.269 C 665.004 103.659 658.216 99.146 649.245 99.093 C 647.456 99.085 647.386 99.096 625.975 102.193 C 619.48 103.142 613.624 103.936 612.965 103.96 C 609.809 104.092 606.889 103.458 604.279 102.082 C 601.348 100.536 599.361 98.229 598.573 95.432 C 597.925 93.123 598.309 90.08 599.584 87.537 C 600.754 85.203 602.896 82.757 605.328 80.964 C 608.332 78.751 611.192 78.114 613.866 79.049 C 616.28 79.898 617.798 81.277 619.201 83.883 C 620.477 86.268 621.987 87.39 624.559 87.873 C 626.765 88.284 628.831 87.945 631.359 86.739 C 632.539 86.171 634.615 84.654 635.466 83.712 C 638.731 80.15 639.489 75.49 637.283 72.503 C 636.596 71.577 635.996 71.085 634.736 70.424 C 632.806 69.402 630.614 68.94 628.177 69.042 C 625.422 69.153 623.295 69.551 620.283 70.508 C 616.553 71.693 613.135 73.279 608.906 75.791 C 607.548 76.609 601.645 80.774 600.883 81.467 Z" style="transform-origin: 9090.83px 23142.4px;" fill="#FFFFFF" stroke="none"/>
    <path d="M 698.309 43.627 C 699.085 44.452 699.443 44.96 699.853 45.796 C 700.285 46.664 700.433 47.097 700.551 47.859 C 700.626 48.325 700.472 111.625 700.385 119.052 C 700.351 121.21 700.341 121.369 700.062 122.173 C 699.689 123.295 699.129 124.247 698.296 125.157 L 697.609 125.918 L 698.152 125.971 C 698.456 126.003 704.518 126.056 711.616 126.098 L 724.526 126.162 L 723.791 125.379 C 722.92 124.448 722.363 123.538 721.982 122.385 L 721.697 121.538 L 721.697 113.074 C 721.702 100.167 721.793 93.649 721.988 92.814 C 722.636 89.968 723.978 88.042 726.335 86.593 C 729.829 84.424 735.687 82.847 742.228 82.286 C 748.07 81.789 750.974 81.313 754.461 80.287 C 757.824 79.313 761.664 77.547 763.248 76.256 C 765.864 74.129 768.017 71.252 769.063 68.48 C 771.868 61.042 769.038 53.213 761.712 48.145 C 757.761 45.405 752.926 43.818 747.594 43.511 C 746.58 43.458 737.81 43.363 728.088 43.299 C 718.377 43.246 707.579 43.162 704.098 43.13 L 697.774 43.066 L 698.309 43.627 Z M 731.443 45.986 C 736.777 46.865 741.395 49.171 744.502 52.493 C 746.664 54.81 748.043 57.487 748.545 60.333 C 748.801 61.825 748.717 64.449 748.356 65.898 C 747.44 69.654 745.318 72.627 741.95 74.88 C 740.209 76.044 738.613 76.922 732.979 79.8 C 726.865 82.932 725.061 84.074 722.884 86.222 L 721.79 87.291 L 721.826 74.214 C 721.841 67.02 721.871 58.217 721.9 54.673 C 721.94 48.441 721.949 48.198 722.157 47.732 C 722.571 46.812 723.238 46.24 724.334 45.87 C 724.94 45.669 730.01 45.754 731.443 45.986 Z" fill="#FFFFFF" stroke="none"/>
    <path d="M 1033.29 152.679 C 1032.32 153.684 1029.16 156.975 1026.27 159.99 C 1023.37 162.995 1020.93 165.576 1020.83 165.735 C 1020.38 166.423 1020.71 167.079 1021.97 167.978 C 1023.89 169.364 1024.74 170.93 1025.08 173.712 C 1025.22 174.94 1025.18 180.674 1024.99 182.885 C 1024.19 193.074 1022.28 202.511 1018.22 216.371 C 1013.69 231.818 1007.54 248.112 999.163 266.838 L 998.973 267.251 L 998.853 266.965 C 998.653 266.531 998.543 266.838 998.663 267.463 C 998.713 267.748 998.783 268.002 998.803 268.034 C 998.833 268.055 999.363 268.044 999.993 268.002 L 1001.14 267.928 L 1007.13 260.131 L 1013.13 252.333 L 1016.51 246.313 C 1021.2 237.965 1022.42 235.457 1025.17 228.421 C 1030.82 214.001 1035.74 197.549 1040.75 176.368 C 1043.66 164.074 1044.15 161.63 1044.14 159.609 C 1044.14 157.832 1043.69 156.731 1042.51 155.536 C 1041.45 154.457 1039.99 153.536 1035.95 151.325 L 1035.04 150.828 L 1033.29 152.679 Z" fill="#FFFFFF" stroke="none"/>
    <path d="M 564.655 248.6 C 561.154 248.896 557.229 250.367 553.892 252.641 C 552.818 253.371 551.423 254.683 551.194 255.18 C 551.039 255.508 551.05 255.572 551.388 256.577 C 552.413 259.592 553.754 266.162 554.624 272.447 C 555.526 278.985 556.082 285.1 556.509 293.342 C 556.701 296.982 556.755 311.688 556.591 315.56 C 556.361 321.072 555.986 327.092 555.881 327.092 C 555.756 327.092 554.685 325.907 553.792 324.775 C 549.119 318.85 543.147 306.567 537.108 290.433 C 532.748 278.784 527.8 263.581 527.36 260.439 C 526.523 254.62 524.044 251.382 519.84 250.642 C 516.67 250.081 513.455 251.245 509.724 254.292 C 507.786 255.868 505.423 258.502 504.706 259.878 C 504.447 260.375 504.415 260.164 505.039 262.163 C 506.721 267.57 507.689 280.657 507.372 293.818 C 507.109 304.737 506.239 324.056 505.09 344.116 L 504.844 348.379 L 505.17 348.792 C 506.094 349.966 507.896 351.109 510.587 352.209 C 514.942 353.997 522.161 355.679 525.568 355.69 C 526.572 355.69 526.875 355.658 527.365 355.457 C 528.409 355.045 529.075 354.198 529.373 352.886 C 529.579 351.987 529.567 351.5 529.251 348.136 C 528.445 339.365 527.704 328.224 527.315 319.147 C 527.144 315.105 526.984 305.901 527.038 303.605 C 527.094 301.669 527.094 301.647 527.283 301.933 C 527.672 302.504 528.801 305.255 529.678 307.784 C 529.836 308.249 530.755 310.915 531.717 313.709 C 536.176 326.711 538.603 332.848 541.54 338.572 C 543.93 343.227 545.99 346.232 548.382 348.549 C 550.354 350.464 552.177 351.458 553.975 351.606 L 554.697 351.67 L 556.814 350.559 C 565.182 346.189 572.596 341.333 573.311 339.757 C 574.047 338.148 577.689 296.601 578.748 277.79 C 579.248 268.765 579.115 263.761 578.252 259.444 C 577.421 255.297 575.685 252.208 573.202 250.483 C 572.374 249.912 570.835 249.245 569.705 248.96 C 568.836 248.748 566.023 248.42 565.731 248.494 C 565.7 248.505 565.219 248.547 564.655 248.6 Z" fill="#FFFFFF" stroke="none"/>
    <path d="M 704.08 364.52 C 699.682 365.059 696.591 366.117 695.843 367.355 C 695.573 367.789 695.556 368.921 695.793 370.593 C 695.879 371.206 695.954 371.746 695.954 371.799 C 695.954 371.852 695.493 371.439 694.926 370.899 C 693.741 369.746 692.714 369.006 691.394 368.339 C 686.807 366.022 679.815 366.149 674.639 368.635 C 665.853 372.857 659.936 384.04 659.161 397.9 L 659.073 399.444 L 658.273 400.809 C 654.398 407.358 650.11 412.373 646.044 415.103 C 642.915 417.197 639.657 418.107 636.959 417.631 C 635.16 417.314 633.693 416.531 632.193 415.103 C 630.714 413.706 629.632 412.13 628.988 410.458 C 628.809 410.003 628.671 409.601 628.671 409.548 C 628.671 409.495 629.172 409.273 629.798 409.051 C 632.419 408.12 635.726 406.533 638.261 404.978 C 641.014 403.295 643.192 401.581 645.358 399.37 C 649.451 395.212 651.723 390.642 652.321 385.362 C 652.493 383.796 652.365 380.241 652.088 378.94 C 651.418 375.851 650.155 373.513 648.089 371.513 C 643.714 367.302 635.681 365.821 629.124 368.022 C 621.806 370.476 615.853 377.533 612.597 387.626 C 609.703 396.566 609.471 407.284 611.969 415.558 C 612.625 417.705 613.057 418.827 614.026 420.795 C 617.755 428.444 623.802 432.877 631.708 433.745 C 633.141 433.903 635.838 433.882 637.091 433.702 C 641.908 433.015 646.278 430.602 650.527 426.296 C 653.86 422.921 656.834 418.689 659.584 413.378 C 659.958 412.648 660.28 412.066 660.301 412.087 C 660.311 412.108 660.534 412.828 660.777 413.706 C 661.413 415.97 662.141 417.885 663.152 419.948 C 666.08 425.926 670.392 430.137 675.563 432.052 C 677.918 432.93 679.905 433.258 682.801 433.268 C 685.351 433.268 686.417 433.12 688.192 432.538 C 691.689 431.375 694.752 428.687 696.392 425.333 C 697.45 423.175 698.428 419.028 698.954 414.436 L 699.086 413.283 L 699.151 413.918 C 699.194 414.267 699.235 416.753 699.255 419.451 L 699.283 424.35 L 697.212 426.645 C 685.032 440.167 677.465 451.868 676.258 459.031 C 676.064 460.184 676.069 461.75 676.271 462.575 C 676.812 464.709 678.881 467.46 681.754 469.883 C 687.165 474.432 694.032 477.246 698.462 476.696 C 706.56 475.702 712.118 466.434 715.251 448.673 C 716.501 441.637 717.166 435.035 717.934 422.276 C 718.21 417.737 718.331 416.404 718.538 415.928 C 718.673 415.589 723.213 410.807 723.307 410.902 C 723.339 410.934 723.488 411.643 723.637 412.489 C 724.629 417.875 726.559 422.593 729.249 426.212 C 730.026 427.238 731.736 429.036 732.701 429.841 C 736.518 432.993 741.666 434.527 746.881 434.083 C 752.868 433.565 757.666 430.761 761.514 425.513 C 763.605 422.667 765.265 419.271 766.619 415.103 C 766.919 414.182 767.188 413.41 767.208 413.389 C 767.229 413.357 767.605 413.272 768.044 413.188 C 769.903 412.828 771.729 411.992 773.533 410.659 C 773.846 410.437 774.106 410.268 774.127 410.289 C 774.148 410.31 774.286 410.818 774.445 411.431 C 776.853 420.943 783.04 429.142 790.727 433.036 C 799.231 437.352 809.176 435.744 816.405 428.909 C 819.686 425.799 822.598 421.578 824.702 416.838 C 825.065 416.023 825.366 415.367 825.376 415.378 C 825.387 415.388 825.683 416.256 826.031 417.303 C 827.427 421.482 829.1 424.466 831.44 426.931 C 833.15 428.74 834.513 429.766 836.607 430.803 C 838.859 431.914 841.265 432.56 844.089 432.814 C 846.002 432.983 847.486 432.898 848.447 432.56 C 851.38 431.533 854.358 428.465 857.392 423.313 C 858.42 421.567 860.496 417.441 861.283 415.589 C 861.532 414.997 861.76 414.542 861.802 414.584 C 861.834 414.626 861.971 415.081 862.109 415.61 C 863.117 419.546 864.876 423.323 867.019 426.212 C 867.796 427.238 869.507 429.036 870.472 429.841 C 874.288 432.993 879.437 434.527 884.651 434.083 C 890.639 433.565 895.437 430.761 899.285 425.513 C 901.376 422.667 903.036 419.271 904.39 415.103 C 904.689 414.182 904.958 413.41 904.979 413.389 C 905 413.357 905.376 413.272 905.815 413.188 C 910.473 412.288 915.11 408.183 918.536 401.941 C 919.71 399.825 920.786 397 920.814 395.995 L 920.833 395.53 L 919.107 395.085 C 918.155 394.842 917.255 394.62 917.108 394.577 C 916.847 394.514 916.805 394.556 916.452 395.307 C 915.644 397.043 913.938 399.37 912.407 400.798 C 911.063 402.079 909.519 403.052 908.277 403.433 C 907.285 403.729 907.369 403.941 907.275 401.031 C 906.895 388.589 904.584 379.988 900.057 374.137 C 899.165 372.973 897.192 371.1 896.061 370.317 C 892.906 368.127 889.526 367.08 885.135 366.932 C 880.818 366.773 877.08 367.948 873.598 370.561 C 872.285 371.555 869.817 374.095 868.693 375.618 C 864.72 381.024 862.019 388.409 861.015 396.619 C 860.822 398.153 860.822 398.153 859.961 400.111 C 855.359 410.585 852.2 415.769 849.696 416.965 C 849.122 417.24 848.944 417.271 848.422 417.219 C 846.079 417.007 844.524 414.764 843.798 410.532 C 843.456 408.532 843.334 406.617 843.322 403.391 C 843.31 397.413 843.752 392.419 845.408 379.638 C 846.262 373.005 846.301 372.306 845.847 371.1 C 845.056 368.995 842.301 367.524 838.044 366.932 C 835.325 366.551 829.953 366.72 828.397 367.239 C 827.917 367.397 827.72 367.768 827.079 369.788 C 825.085 376.031 823.63 386.738 823.507 396.037 C 823.457 399.328 823.447 399.455 823.168 400.587 C 822.458 403.401 821.278 406.586 819.991 409.21 C 817.761 413.77 814.898 417.123 811.654 418.975 C 808.608 420.71 805.088 421.366 802.441 420.678 C 800.129 420.086 798.043 418.488 796.456 416.118 C 793.66 411.897 792.141 405.559 792.113 397.952 C 792.078 388.24 794.545 379.935 797.947 378.305 C 800.336 377.152 801.766 379.258 802.319 384.717 C 802.492 386.388 802.498 390.747 802.328 392.811 C 802.258 393.71 802.201 395.191 802.204 396.09 C 802.199 397.677 802.21 397.751 802.495 398.333 C 803.127 399.624 804.96 400.82 807.231 401.444 C 807.775 401.592 808.319 401.645 809.322 401.645 C 810.629 401.645 810.702 401.634 811.307 401.327 C 814.228 399.836 816.361 394.165 816.762 386.812 C 817.281 377.353 814.109 370.349 807.941 367.302 C 805.721 366.212 803.807 365.789 801.037 365.8 C 793.5 365.821 786.564 369.926 781.177 377.554 C 776.769 383.828 773.822 392.578 773.454 400.534 L 773.386 401.899 L 772.843 402.269 C 772.093 402.777 771.175 403.232 770.506 403.433 C 769.514 403.729 769.599 403.941 769.504 401.031 C 769.124 388.589 766.814 379.988 762.287 374.137 C 761.394 372.973 759.422 371.1 758.29 370.317 C 755.136 368.127 751.755 367.08 747.365 366.932 C 743.047 366.773 739.309 367.948 735.827 370.561 C 734.514 371.555 732.046 374.095 730.923 375.618 C 729.695 377.29 728.947 378.517 727.858 380.696 C 724.994 386.399 723.294 393.223 722.914 400.587 C 722.845 401.814 722.744 402.872 722.682 402.957 C 722.505 403.19 718.963 406.353 718.879 406.353 C 718.827 406.353 718.758 404.533 718.707 402.301 C 718.429 389.129 717.388 373.238 716.569 369.587 C 716.336 368.519 715.957 367.799 715.285 367.112 C 714.194 365.98 712.351 365.144 710.039 364.721 C 709.087 364.541 705.021 364.414 704.08 364.52 Z M 688.096 375.417 C 689.677 376.179 691.245 379.046 692.369 383.236 L 692.708 384.505 L 692.708 387.309 C 692.712 394.112 691.42 406.448 689.992 413.293 C 689.417 416.055 688.622 418.732 688.02 419.927 C 687.376 421.197 686.616 421.906 685.895 421.906 C 682.801 421.906 679.646 408.458 679.586 395.032 C 679.57 390.483 679.769 387.901 680.384 384.653 C 681.42 379.173 683.457 375.851 686.193 375.184 C 686.851 375.026 687.405 375.089 688.096 375.417 Z M 751.436 376.941 C 752.819 377.628 753.912 379.236 754.894 382.051 L 755.19 382.876 L 754.661 384.019 C 752.089 389.541 751.181 395.646 752.203 400.64 C 752.799 403.57 754.105 406.258 756.216 408.913 L 756.5 409.273 L 756.087 410.744 C 755.458 412.955 754.826 414.69 753.986 416.467 C 752.607 419.366 751.317 421.006 749.783 421.768 C 749.084 422.128 748.906 422.17 748.195 422.17 C 747.506 422.17 747.307 422.117 746.71 421.821 C 744.06 420.509 742.298 415.896 741.538 408.363 C 741.321 406.162 741.325 398.672 741.546 396.249 C 742.25 388.631 743.785 382.685 745.884 379.385 C 747.495 376.835 749.478 375.967 751.436 376.941 Z M 889.207 376.941 C 890.589 377.628 891.682 379.236 892.665 382.051 L 892.961 382.876 L 892.432 384.019 C 889.86 389.541 888.952 395.646 889.974 400.64 C 890.57 403.57 891.876 406.258 893.987 408.913 L 894.27 409.273 L 893.858 410.744 C 893.228 412.955 892.597 414.69 891.757 416.467 C 890.377 419.366 889.087 421.006 887.553 421.768 C 886.854 422.128 886.677 422.17 885.966 422.17 C 885.276 422.17 885.077 422.117 884.48 421.821 C 881.831 420.509 880.068 415.896 879.309 408.363 C 879.092 406.162 879.095 398.672 879.316 396.249 C 880.02 388.631 881.556 382.685 883.655 379.385 C 885.266 376.835 887.249 375.967 889.207 376.941 Z M 638.328 377.776 C 639.155 378.147 639.912 379.279 640.23 380.612 C 640.442 381.479 640.387 383.447 640.13 384.664 C 639.154 389.34 635.775 394.197 630.876 397.931 C 629.187 399.222 627.602 400.195 627.444 400.037 C 627.329 399.92 627.374 397.963 627.526 396.619 C 628.204 390.557 630.136 384.368 632.433 380.866 C 634.221 378.157 636.495 376.962 638.328 377.776 Z M 698.559 437.638 C 698.377 439.257 697.847 442.917 697.519 444.811 C 696.076 453.212 694.171 458.227 692.095 459.137 C 691.009 459.613 690.789 459.306 690.792 457.349 C 690.789 456.619 690.848 455.666 690.92 455.233 C 691.512 451.35 693.178 446.673 695.586 442.113 C 696.759 439.892 698.431 437.035 698.567 437.035 C 698.599 437.035 698.589 437.31 698.559 437.638 Z" fill="#FFFFFF" stroke="none"/>
    <path d="M 964.768 270.756 C 959.721 271.201 955.545 272.492 952.657 274.491 C 951.593 275.232 950.083 276.734 949.428 277.697 C 948.295 279.358 947.664 281.22 947.453 283.463 C 947.121 287.113 948.398 290.403 951.41 293.673 C 953.583 296.032 956.539 298.264 962.637 302.179 C 965.854 304.242 968.442 306.009 969.648 306.972 C 973.265 309.871 974.758 312.272 974.621 314.928 C 974.455 318.123 971.997 320.43 967.809 321.329 C 966.482 321.614 963.838 321.72 962.342 321.551 C 959.111 321.181 956.212 320.133 953.613 318.398 C 953.037 318.007 952.356 317.636 952.094 317.552 C 950.221 316.97 948.472 318.843 947.784 322.175 C 947.527 323.466 947.515 325.91 947.761 327.307 C 948.487 331.338 950.695 334.935 953.713 336.987 C 958.659 340.352 968.602 340.965 977.374 338.458 C 982.469 336.998 986.694 334.67 989.808 331.602 C 992.693 328.745 994.334 325.698 994.978 321.964 C 995.254 320.324 995.266 317.774 994.999 316.356 C 994.093 311.627 991.004 307.321 985.112 302.549 C 982.973 300.814 981.16 299.534 975.606 295.799 C 972.882 293.969 970.147 292.065 969.539 291.567 C 968.071 290.372 966.916 289.123 966.506 288.277 C 965.547 286.33 966.639 284.659 969.385 283.854 C 970.095 283.643 970.44 283.611 971.976 283.611 C 973.481 283.611 973.9 283.653 974.695 283.854 C 976.045 284.204 977.626 285.008 978.402 285.727 C 979.598 286.849 980.061 287.833 980.204 289.589 C 980.335 291.102 980.599 291.8 981.354 292.562 C 982.445 293.652 983.827 294.096 985.865 294.001 C 991.143 293.747 995.015 289.42 995.057 283.717 C 995.08 281.516 994.543 280.342 992.654 278.416 C 991.3 277.041 989.907 276.057 987.791 274.999 C 983.822 272.989 978.935 271.613 973.487 270.968 C 971.354 270.714 966.597 270.598 964.768 270.756 Z" fill="#FFFFFF" stroke="none"/>
  </g>
</svg>