<svg xmlns="http://www.w3.org/2000/svg" width="4861.000000pt" height="2393.000000pt" viewBox="0 0 4861.000000 2393.000000">
<g transform="translate(0.000000,2393.000000) scale(0.100000,-0.100000)">
<path d="M32760 23363 c0 -512 2 -566 20 -654 53 -265 74 -587 57 -874 -15
-247 -15 -321 2 -614 15 -271 10 -866 -9 -1101 -10 -117 -9 -149 6 -240 20
-122 15 -242 -15 -365 -26 -107 -58 -437 -76 -791 -27 -529 -36 -677 -56 -914
-64 -765 -176 -1452 -349 -2140 -42 -168 -62 -269 -70 -355 -6 -66 -20 -165
-31 -220 -24 -116 -93 -330 -138 -429 -20 -45 -29 -77 -25 -92 4 -15 0 -34
-10 -49 -9 -14 -27 -76 -41 -138 -13 -63 -36 -138 -50 -168 -15 -33 -25 -72
-25 -101 0 -110 -46 -265 -108 -366 -20 -33 -59 -156 -131 -417 -131 -476
-116 -432 -155 -445 l-34 -11 -12 -97 c-7 -53 -19 -107 -26 -119 -8 -12 -14
-34 -14 -48 0 -13 -25 -69 -55 -124 -30 -55 -55 -112 -55 -128 0 -18 -49 -112
-139 -265 -82 -139 -203 -369 -294 -555 -85 -175 -205 -408 -266 -518 -62
-110 -121 -227 -132 -260 -10 -33 -46 -103 -80 -155 -104 -159 -135 -253 -112
-338 l8 -33 72 36 c98 49 188 136 329 317 113 145 164 202 244 274 19 17 78
98 130 180 434 683 487 761 558 829 76 71 132 151 180 256 16 35 81 145 144
244 1072 1682 1826 3594 2287 5800 140 673 293 1640 311 1966 10 177 20 225
56 268 63 75 149 52 452 -121 423 -241 854 -484 1677 -943 1672 -932 2431
-1373 3240 -1878 335 -209 295 -191 357 -166 97 38 252 122 368 200 182 122
235 167 744 623 172 154 362 305 498 396 65 43 123 80 130 83 7 2 10 7 7 11
-4 5 -8987 5094 -9306 5273 l-63 35 0 -559z"/>
<path d="M47854 21306 c-535 -180 -988 -370 -1554 -653 -1515 -755 -3110
-1872 -4865 -3407 -558 -489 -1385 -1256 -1385 -1285 0 -10 -194 -217 -432
-461 -239 -248 -446 -469 -466 -500 -73 -115 -155 -170 -255 -170 -131 0 -331
102 -527 269 -61 53 -249 195 -665 508 -642 481 -1041 748 -1365 913 -137 69
-289 134 -297 127 -2 -3 628 -978 1401 -2168 1493 -2300 1463 -2256 1579
-2313 63 -32 132 -34 186 -6 53 26 121 105 166 192 31 59 367 528 841 1173 41
55 187 255 325 445 571 783 492 684 938 1195 2547 2917 4564 4827 6435 6094
99 66 175 121 170 121 -5 0 -108 -33 -230 -74z"/>
<path d="M26700 20564 c0 -3 105 -191 234 -417 445 -786 648 -1159 886 -1637
356 -711 591 -1275 785 -1885 35 -110 102 -310 148 -445 284 -832 458 -1736
532 -2765 17 -239 35 -643 35 -787 l0 -97 -32 -5 c-18 -3 -69 -10 -112 -16
-260 -38 -518 -193 -654 -393 -222 -323 -154 -741 164 -996 95 -77 180 -124
300 -167 126 -45 240 -64 389 -64 296 0 547 95 738 279 225 216 298 506 198
781 -112 307 -457 545 -833 576 l-86 7 13 56 c78 334 157 801 224 1321 l50
385 -9 380 c-10 415 -20 614 -50 980 -66 789 -205 1610 -400 2360 -91 352
-136 489 -280 854 -39 98 -70 183 -70 189 0 7 7 12 14 12 13 0 12 9 -3 53
l-19 54 466 6 c690 10 1460 8 1692 -4 113 -6 284 -11 380 -10 253 2 538 -16
650 -39 l95 -20 32 34 c38 41 58 123 48 199 -10 78 -144 620 -186 754 -9 28
-36 48 -182 140 -95 58 -190 111 -212 116 -224 50 -1691 149 -2785 187 -752
26 -2160 42 -2160 24z"/>
<path d="M6010 19053 c0 -132 -3 -363 -6 -514 l-6 -274 31 37 c45 53 181 160
286 225 340 212 855 394 1351 478 224 38 357 32 473 -21 70 -31 106 -65 138
-129 l26 -50 -17 -3395 c-10 -2074 -21 -3429 -27 -3483 -17 -156 -81 -286
-201 -413 l-68 -72 797 -6 c439 -3 1021 -8 1293 -12 l494 -5 -61 63 c-104 109
-167 224 -197 358 -16 70 -15 298 9 3485 14 1876 29 3426 34 3445 38 165 188
253 404 237 363 -27 936 -191 1315 -376 243 -120 434 -248 534 -359 28 -31 38
-37 42 -25 3 8 6 234 6 503 l0 488 -422 6 c-233 3 -1442 13 -2688 21 -1246 8
-2552 18 -2902 21 l-638 7 0 -240z"/>
<path d="M16395 19204 c-22 -2 -112 -11 -200 -20 -430 -41 -882 -135 -1245
-259 -885 -303 -1395 -795 -1532 -1477 -31 -154 -33 -480 -4 -603 90 -387 327
-710 696 -951 52 -34 201 -117 330 -184 429 -224 2393 -1276 2520 -1350 636
-368 984 -724 1092 -1118 17 -62 22 -106 22 -227 0 -134 -2 -161 -27 -250 -69
-248 -207 -476 -412 -680 -126 -126 -244 -210 -410 -291 -256 -125 -517 -184
-821 -184 -353 0 -681 162 -1024 509 -226 227 -390 460 -540 766 -121 246
-200 480 -242 715 -26 144 -35 429 -19 554 23 174 80 345 155 473 l34 58 -26
3 c-45 6 -291 -18 -401 -39 -596 -115 -1040 -493 -1173 -999 -26 -99 -35 -303
-18 -396 35 -189 132 -437 235 -595 176 -272 439 -524 745 -714 621 -384 1526
-587 2510 -561 576 14 1016 84 1457 231 855 285 1472 855 1716 1585 241 720
-23 1444 -709 1951 -137 101 -143 104 -1964 1069 -553 292 -1048 560 -1100
595 -250 167 -438 379 -560 630 -137 282 -158 569 -59 826 82 212 285 422 528
544 223 112 527 178 816 178 357 0 613 -112 765 -333 137 -200 175 -390 134
-667 -38 -253 14 -423 184 -604 146 -155 324 -245 587 -295 123 -23 369 -24
488 0 454 88 778 400 779 751 0 109 -18 180 -77 301 -90 186 -232 344 -425
473 -218 146 -404 235 -690 331 -354 119 -707 190 -1175 236 -151 14 -842 28
-940 18z"/>
<path d="M20496 19129 c74 -78 108 -126 147 -205 41 -82 55 -123 66 -195 7
-44 -30 -6027 -41 -6729 -4 -204 -5 -219 -32 -295 -36 -106 -90 -196 -170
-282 l-66 -72 52 -5 c29 -3 609 -8 1288 -12 l1235 -6 -70 74 c-83 88 -136 174
-172 283 l-27 80 3 800 c5 1220 16 1836 35 1915 63 269 192 451 418 588 335
205 896 354 1522 407 559 47 837 92 1171 189 322 92 690 259 842 381 251 201
458 473 559 735 271 703 3 1443 -696 1922 -377 259 -839 409 -1349 438 -97 5
-936 14 -1866 20 -929 5 -1962 13 -2295 16 l-605 6 51 -53z m3169 -223 c510
-83 951 -301 1247 -615 206 -219 337 -472 384 -741 24 -141 15 -389 -20 -526
-89 -355 -293 -636 -616 -849 -167 -110 -320 -193 -860 -465 -586 -296 -759
-404 -968 -607 l-105 -101 8 1236 c4 680 10 1512 14 1847 6 589 7 612 27 656
40 87 104 141 209 176 58 19 543 11 680 -11z"/>
<path d="M44534 17185 c-93 -95 -396 -406 -674 -691 -278 -284 -513 -528 -522
-543 -44 -65 -12 -127 108 -212 183 -131 264 -279 295 -542 13 -116 7 -658
-11 -867 -81 -963 -267 -1855 -660 -3165 -439 -1460 -1033 -3000 -1841 -4770
l-18 -39 -12 27 c-19 41 -29 12 -18 -47 5 -27 11 -51 13 -54 3 -2 54 -1 114 3
l110 7 576 737 576 737 326 569 c451 789 569 1026 835 1691 545 1363 1022
2918 1508 4920 283 1162 331 1393 331 1584 0 168 -42 272 -155 385 -101 102
-240 189 -626 398 l-87 47 -168 -175z"/>
<path d="M6007 13389 c-335 -28 -711 -167 -1031 -382 -103 -69 -237 -193 -259
-240 -15 -31 -14 -37 18 -132 97 -285 223 -906 304 -1500 84 -618 135 -1196
173 -1975 17 -344 17 -1734 0 -2100 -24 -521 -62 -1090 -72 -1090 -12 0 -114
112 -199 219 -445 560 -1012 1721 -1584 3246 -413 1101 -881 2538 -922 2835
-78 550 -314 856 -716 926 -303 53 -611 -57 -969 -345 -186 -149 -413 -398
-482 -528 -25 -47 -28 -27 31 -216 159 -511 247 -1748 212 -2992 -29 -1032
-119 -2858 -236 -4754 l-25 -403 31 -39 c88 -111 260 -219 517 -323 416 -169
1106 -328 1432 -329 96 0 125 3 172 22 100 39 164 119 193 243 20 85 19 131
-10 449 -74 829 -141 1882 -175 2740 -15 382 -27 1252 -21 1469 6 183 6 185
24 158 37 -54 144 -314 227 -553 15 -44 102 -296 193 -560 422 -1229 652
-1809 931 -2350 227 -440 423 -724 651 -943 188 -181 362 -275 534 -289 l69
-6 203 105 c802 413 1513 872 1582 1021 71 152 434 4079 542 5857 51 853 40
1326 -41 1734 -78 392 -243 684 -480 847 -79 54 -226 117 -334 144 -83 20
-352 51 -380 44 -3 -1 -49 -5 -103 -10z"/>
<path d="M16610 10624 c-421 -51 -717 -151 -789 -268 -26 -41 -28 -148 -6
-306 8 -58 15 -109 15 -114 0 -5 -44 34 -98 85 -113 109 -211 179 -337 242
-438 219 -1107 207 -1603 -28 -842 -399 -1412 -1456 -1491 -2766 l-9 -146 -77
-129 c-373 -619 -785 -1093 -1175 -1351 -300 -198 -612 -284 -870 -239 -172
30 -312 104 -455 239 -141 132 -244 281 -305 439 -17 43 -30 81 -30 86 0 5 48
26 108 47 251 88 568 238 811 385 264 159 473 321 681 530 393 393 612 825
671 1324 17 148 6 484 -20 607 -63 292 -183 513 -380 702 -417 398 -1185 538
-1813 330 -701 -232 -1273 -899 -1588 -1853 -280 -845 -306 -1858 -70 -2640
62 -203 103 -309 195 -495 354 -723 931 -1142 1687 -1224 137 -15 395 -13 515
4 461 65 880 293 1288 700 320 319 606 719 871 1221 36 69 67 124 69 122 1 -2
22 -70 45 -153 60 -214 129 -395 225 -590 278 -565 689 -963 1183 -1144 225
-83 415 -114 692 -115 244 0 346 14 516 69 335 110 629 364 787 681 102 204
197 596 249 1030 l13 109 6 -60 c4 -33 7 -268 8 -523 l1 -463 -199 -217
c-1170 -1278 -1898 -2384 -2016 -3061 -19 -109 -19 -257 0 -335 51 -202 248
-462 522 -691 516 -430 1172 -696 1596 -644 775 94 1310 970 1616 2649 122
665 188 1289 266 2495 28 429 40 555 60 600 13 32 449 484 458 475 3 -3 17
-70 31 -150 93 -509 276 -955 532 -1297 74 -97 237 -267 329 -343 364 -298
856 -443 1355 -401 573 49 1033 314 1403 810 201 269 361 590 492 984 29 87
55 160 57 162 2 3 38 11 80 19 178 34 353 113 526 239 30 21 55 37 57 35 2 -2
15 -50 30 -108 227 -899 816 -1674 1550 -2042 812 -408 1764 -256 2458 390
315 294 595 693 798 1141 35 77 64 139 65 138 1 -1 29 -83 62 -182 132 -395
291 -677 514 -910 163 -171 293 -268 493 -366 215 -105 445 -166 715 -190 183
-16 325 -8 417 24 281 97 567 387 859 874 99 165 299 555 375 730 24 56 46 99
50 95 3 -4 16 -47 29 -97 95 -372 262 -729 466 -1002 74 -97 237 -267 329
-343 364 -298 856 -443 1355 -401 573 49 1033 314 1403 810 201 269 361 590
492 984 29 87 55 160 57 162 2 3 38 11 80 19 446 85 891 473 1221 1063 113
200 217 467 220 562 l2 44 -165 42 c-91 23 -177 44 -191 48 -25 6 -29 2 -63
-69 -78 -164 -242 -384 -389 -519 -129 -121 -277 -213 -396 -249 -95 -28 -87
-48 -95 227 -32 1176 -250 1989 -681 2542 -85 110 -273 287 -381 361 -301 207
-624 306 -1044 320 -413 15 -771 -96 -1105 -343 -126 -94 -363 -334 -471 -478
-382 -511 -643 -1209 -742 -1985 -19 -145 -19 -145 -102 -330 -444 -990 -748
-1480 -988 -1593 -55 -26 -72 -29 -122 -24 -224 20 -372 232 -440 632 -32 189
-43 370 -43 675 1 565 45 1037 208 2245 84 627 88 693 45 807 -75 199 -338
338 -745 394 -260 36 -774 20 -923 -29 -46 -15 -65 -50 -127 -241 -193 -590
-336 -1602 -351 -2481 -6 -311 -7 -323 -34 -430 -69 -266 -183 -567 -307 -815
-215 -431 -490 -748 -801 -923 -292 -164 -629 -226 -882 -161 -221 56 -420
207 -571 431 -266 399 -409 998 -409 1717 0 918 239 1703 565 1857 229 109
365 -90 416 -606 16 -158 15 -570 -2 -765 -7 -85 -13 -225 -13 -310 -1 -150 0
-157 27 -212 60 -122 235 -235 452 -294 52 -14 104 -19 200 -19 125 0 132 1
190 30 280 141 486 677 527 1372 53 894 -248 1556 -837 1844 -212 103 -395
143 -660 142 -721 -2 -1386 -390 -1904 -1111 -424 -593 -709 -1420 -747 -2172
l-7 -129 -52 -35 c-72 -48 -160 -91 -224 -110 -95 -28 -87 -48 -95 227 -32
1176 -250 1989 -681 2542 -85 110 -273 287 -381 361 -301 207 -624 306 -1044
320 -413 15 -771 -96 -1105 -343 -126 -94 -363 -334 -471 -478 -118 -158 -190
-274 -295 -480 -276 -539 -441 -1184 -480 -1880 -7 -116 -17 -216 -23 -224
-17 -22 -357 -321 -365 -321 -5 0 -11 172 -15 383 -22 1245 -116 2747 -193
3092 -22 101 -58 169 -122 234 -104 107 -280 186 -501 226 -91 17 -480 29
-570 19z m-1533 -1030 c151 -72 300 -343 406 -739 l32 -120 -1 -265 c-2 -643
-130 -1809 -269 -2456 -56 -261 -133 -514 -191 -627 -62 -120 -135 -187 -204
-187 -296 0 -593 1271 -594 2540 0 430 20 674 80 981 101 518 297 832 559 895
63 15 116 9 182 -22z m6059 -144 c132 -65 236 -217 329 -483 l28 -78 -51 -108
c-248 -522 -337 -1099 -241 -1571 56 -277 180 -531 381 -782 l27 -34 -40 -139
c-61 -209 -122 -373 -203 -541 -133 -274 -257 -429 -404 -501 -67 -34 -84 -38
-152 -38 -66 0 -85 5 -142 33 -253 124 -420 560 -490 1272 -20 208 -17 916 5
1145 70 720 219 1282 421 1594 155 241 345 323 532 231z m13180 0 c132 -65
236 -217 329 -483 l28 -78 -51 -108 c-248 -522 -337 -1099 -241 -1571 56 -277
180 -531 381 -782 l27 -34 -40 -139 c-61 -209 -122 -373 -203 -541 -133 -274
-257 -429 -404 -501 -67 -34 -84 -38 -152 -38 -66 0 -85 5 -142 33 -253 124
-420 560 -490 1272 -20 208 -17 916 5 1145 70 720 219 1282 421 1594 155 241
345 323 532 231z m-24001 -79 c79 -35 151 -142 181 -268 20 -82 14 -268 -11
-383 -95 -442 -420 -901 -890 -1254 -162 -122 -314 -214 -329 -199 -11 11 -6
196 9 323 67 573 254 1158 475 1489 172 256 390 369 565 292z m5741 -5658
c-18 -153 -70 -499 -102 -678 -141 -794 -325 -1268 -524 -1354 -104 -45 -125
-16 -124 169 0 69 6 159 13 200 58 367 219 809 451 1240 113 210 274 480 287
480 3 0 2 -26 -1 -57z"/>
<path d="M38070 10550 c-483 -42 -883 -164 -1160 -353 -102 -70 -247 -212
-310 -303 -109 -157 -170 -333 -191 -545 -33 -345 88 -656 375 -965 207 -223
489 -434 1071 -804 307 -195 554 -362 669 -453 345 -274 487 -501 473 -752
-17 -302 -253 -520 -654 -605 -127 -27 -380 -37 -523 -21 -309 35 -586 134
-834 298 -55 37 -120 72 -145 80 -179 55 -347 -122 -414 -437 -25 -122 -27
-353 -4 -485 68 -381 278 -721 566 -915 472 -318 1423 -376 2263 -139 488 138
893 358 1192 648 277 270 435 558 498 911 27 155 29 396 4 530 -85 447 -379
854 -941 1305 -204 164 -377 285 -907 638 -260 173 -521 353 -579 400 -140
113 -250 231 -289 311 -91 184 14 342 277 418 68 20 101 23 248 23 144 0 184
-4 260 -23 129 -33 280 -109 354 -177 114 -106 158 -199 171 -365 12 -143 37
-209 109 -281 104 -103 236 -145 431 -136 505 24 877 433 883 972 3 208 -48
319 -228 501 -129 130 -262 223 -464 323 -379 190 -846 320 -1367 381 -204 24
-659 35 -834 20z"/>
</g>
    <style>
        svg {
            fill: #000000;
        }
        @media (prefers-color-scheme: dark) {
            svg {
                fill: #FFFFFF;
            }
        }
    </style>
</svg>
